<?xml version="1.0" standalone="no"?>
<!DOCTYPE svg PUBLIC "-//W3C//DTD SVG 20010904//EN"
 "http://www.w3.org/TR/2001/REC-SVG-20010904/DTD/svg10.dtd">
<svg version="1.0" xmlns="http://www.w3.org/2000/svg"
 width="260.000000pt" height="260.000000pt" viewBox="0 0 260.000000 260.000000"
 preserveAspectRatio="xMidYMid meet">
<metadata>
Created by potrace 1.14, written by Peter Selinger 2001-2017
</metadata>
<g transform="translate(0.000000,260.000000) scale(0.100000,-0.100000)"
fill="#000000" stroke="none">
<path d="M1142 2590 c-353 -45 -689 -244 -893 -530 -111 -154 -195 -352 -230
-540 -16 -84 -16 -356 0 -440 101 -538 492 -937 1036 -1056 111 -24 379 -24
490 0 413 91 733 334 915 697 50 99 100 248 121 359 16 84 16 356 0 440 -101
538 -500 944 -1035 1055 -96 19 -305 27 -404 15z m721 -391 c12 -6 57 -36 100
-67 l77 -55 0 -654 0 -653 110 0 c61 0 110 -3 110 -7 -1 -11 -50 -75 -100
-130 l-44 -47 -90 2 c-50 1 -115 1 -143 2 l-53 0 0 810 c0 446 2 810 6 810 3
0 15 -5 27 -11z m-641 -109 c183 -56 323 -217 350 -402 40 -266 -139 -503
-411 -542 l-79 -11 37 -41 c20 -22 131 -142 246 -265 464 -496 440 -468 414
-478 -13 -5 -59 -23 -103 -40 -43 -18 -81 -31 -85 -29 -8 4 -280 294 -496 528
-98 107 -208 226 -244 263 l-66 68 -5 -391 -5 -390 -55 36 c-30 21 -76 55
-102 77 l-48 39 0 626 0 627 -75 -3 c-41 -2 -75 -1 -75 3 0 4 27 39 60 79 67
79 170 159 287 223 l78 43 156 0 c129 0 169 -4 221 -20z m-872 -676 c72 -29
100 -107 60 -171 -43 -71 -126 -80 -187 -21 -64 62 -49 153 31 189 50 23 47
23 96 3z m1990 0 c72 -29 100 -107 60 -171 -52 -87 -178 -78 -217 14 -26 64 2
129 69 158 42 18 40 18 88 -1z"/>
<path d="M827 1885 c-19 -13 -37 -31 -41 -40 -3 -9 -6 -127 -6 -262 l0 -245
188 4 c163 3 193 6 232 25 59 27 108 76 136 138 53 113 37 211 -47 300 -74 79
-117 93 -287 99 -135 4 -142 3 -175 -19z"/>
</g>
</svg>
